<svg xmlns="http://www.w3.org/2000/svg" xmlns:xlink="http://www.w3.org/1999/xlink" viewBox="0 0 32 32" fill="#FFFFFF">
  <path d="M13 4C11.089844 4 9.542969 5.386719 9.15625 7.1875C6.824219 7.605469 5 9.550781 5 12C5 12.246094 5.027344 12.464844 5.0625 12.6875C4.417969 13.636719 4 14.753906 4 16C4 17.796875 4.894531 19.308594 6.15625 20.40625C6.066406 20.761719 6 21.117188 6 21.5C6 23.972656 8.027344 26 10.5 26C10.527344 26 10.539063 26 10.5625 26C11.144531 27.128906 12.152344 28 13.5 28C14.476563 28 15.363281 27.589844 16 26.9375C16.636719 27.589844 17.523438 28 18.5 28C19.847656 28 20.855469 27.128906 21.4375 26C21.460938 26 21.472656 26 21.5 26C23.847656 26 25.773438 24.171875 25.96875 21.875L26 21.875C26 21.8125 25.972656 21.75 25.96875 21.6875C25.972656 21.625 26 21.5625 26 21.5C26 21.128906 25.867188 20.8125 25.78125 20.46875C27.078125 19.367188 28 17.828125 28 16C28 14.753906 27.582031 13.636719 26.9375 12.6875C26.972656 12.464844 27 12.246094 27 12C27 9.550781 25.175781 7.605469 22.84375 7.1875C22.457031 5.386719 20.910156 4 19 4C17.800781 4 16.734375 4.558594 16 5.40625C15.265625 4.558594 14.199219 4 13 4 Z M 13 6C14.117188 6 15 6.882813 15 8L15 10C15 11.667969 13.667969 13 12 13L12 15C13.132813 15 14.160156 14.609375 15 13.96875L15 24.5C15 25.339844 14.339844 26 13.5 26C12.753906 26 12.15625 25.484375 12.03125 24.78125L11.84375 23.8125L10.875 23.96875C10.699219 23.996094 10.589844 24 10.5 24C9.109375 24 8 22.890625 8 21.5C8 21.191406 8.050781 20.902344 8.15625 20.625C8.164063 20.601563 8.179688 20.585938 8.1875 20.5625C8.496094 19.792969 9.167969 19.230469 10 19.0625L9.59375 17.09375C8.550781 17.304688 7.644531 17.859375 7 18.65625C6.371094 17.953125 6 17.023438 6 16C6 15.0625 6.320313 14.226563 6.875 13.53125L7.1875 13.15625L7.09375 12.65625C7.039063 12.421875 7 12.214844 7 12C7 10.332031 8.332031 9 10 9L11 9L11 8C11 6.882813 11.882813 6 13 6 Z M 19 6C20.117188 6 21 6.882813 21 8L21 9L22 9C23.667969 9 25 10.332031 25 12C25 12.214844 24.960938 12.421875 24.90625 12.65625L24.8125 13.15625L25.125 13.53125C25.679688 14.226563 26 15.0625 26 16C26 17.199219 25.488281 18.269531 24.65625 19C23.972656 18.394531 23.101563 18 22.125 18C21.179688 18 20.328125 18.335938 19.65625 18.90625L20.9375 20.4375C21.261719 20.164063 21.660156 20 22.125 20C23.089844 20 23.859375 20.722656 23.96875 21.65625C23.886719 22.972656 22.835938 24 21.5 24C21.410156 24 21.300781 23.996094 21.125 23.96875L20.15625 23.8125L19.96875 24.78125C19.84375 25.484375 19.246094 26 18.5 26C17.660156 26 17 25.339844 17 24.5L17 13.96875C17.839844 14.609375 18.867188 15 20 15L20 13C18.332031 13 17 11.667969 17 10L17 8C17 6.882813 17.882813 6 19 6Z" fill="#FFFFFF" />
</svg>