<svg xmlns="http://www.w3.org/2000/svg" xmlns:xlink="http://www.w3.org/1999/xlink" viewBox="0 0 32 32" >
  <path d="M13.289062 4C10.828667 4 8.729687 4.7722013 7.2617188 6.1738281C5.7937505 7.5754549 5 9.5780425 5 11.833984C5 13.536726 5.6412623 14.871166 6.3007812 16.042969C6.9603003 17.214772 7.6354729 18.26302 7.9980469 19.572266C8.4334417 21.185126 8.7470427 23.10601 9.2539062 24.716797C9.5076328 25.523126 9.8022467 26.26143 10.273438 26.878906C10.744628 27.496383 11.507053 28 12.378906 28C13.213844 28 14.031969 27.566965 14.457031 26.90625C14.882094 26.245535 15 25.474191 15 24.634766C15 23.603099 14.9981 21.987186 15.21875 20.720703C15.329088 20.087461 15.506962 19.548628 15.677734 19.269531C15.848507 18.990434 15.861987 19 15.996094 19C16.130201 19 16.144957 18.992 16.316406 19.271484C16.487856 19.550947 16.666109 20.089448 16.777344 20.722656C16.999813 21.989072 17 23.6044 17 24.634766C17 25.474191 17.118153 26.243652 17.542969 26.904297C17.967784 27.564941 18.786423 28 19.621094 28C20.496527 28 21.256543 27.489915 21.726562 26.869141C22.196583 26.248366 22.490667 25.507826 22.744141 24.699219C23.250723 23.083165 23.567446 21.159253 24.001953 19.572266C24.364535 18.262992 25.037765 17.214868 25.697266 16.042969C26.355905 14.8726 26.994419 13.538986 26.996094 11.839844C27.044186 7.3059965 23.595833 4 19.068359 4C17.748752 4 16.189495 4.475542 15.941406 4.5488281C15.130735 4.2299386 14.245815 4 13.289062 4 z M 13.289062 6C15.604721 6 18.259766 8.4257812 18.259766 8.4257812L19.667969 7.0058594C19.667969 7.0058594 19.004034 6.4792157 18.544922 6.0957031C18.751518 6.0668971 18.933133 6 19.068359 6C22.688717 6 25.04053 8.2494615 25 11.822266L24.998047 11.828125L24.998047 11.833984C24.998047 12.638959 24.796911 13.315908 24.490234 14L21 14L21 11L11 11L11 14L7.5078125 14C7.2005569 13.316036 7 12.639346 7 11.833984C7 10.034927 7.5954996 8.6207638 8.6445312 7.6191406C9.693563 6.6175174 11.239459 6 13.289062 6 z M 13 13L19 13L19 16L23.427734 16C22.927435 16.873435 22.411107 17.822568 22.074219 19.039062L22.074219 19.041016C21.59821 20.778371 21.27449 22.700574 20.835938 24.099609C20.61666 24.799127 20.361855 25.359603 20.132812 25.662109C19.903818 25.964488 19.81616 26 19.621094 26C19.317765 26 19.325794 25.981574 19.224609 25.824219C19.123425 25.666863 19 25.25334 19 24.634766C19 23.615131 19.016374 21.913584 18.746094 20.375C18.610953 19.605708 18.416754 18.868897 18.021484 18.224609C17.626215 17.580322 16.880487 17 15.996094 17C15.111701 17 14.367103 17.58191 13.972656 18.226562C13.57821 18.871216 13.382084 19.607695 13.248047 20.376953C12.979972 21.91547 13 23.616432 13 24.634766C13 25.25334 12.876578 25.66498 12.775391 25.822266C12.674203 25.979551 12.682969 26 12.378906 26C12.180259 26 12.091153 25.964633 11.863281 25.666016C11.635409 25.367398 11.381133 24.813233 11.162109 24.117188C10.724062 22.725096 10.4006 20.801906 9.9257812 19.044922L9.9257812 19.041016L9.9238281 19.039062C9.5868813 17.822393 9.0701176 16.873506 8.5703125 16L13 16L13 13 z"  />
</svg>